<mxfile host="app.diagrams.net" agent="Mozilla/5.0 (Macintosh; Intel Mac OS X 10_15_7) AppleWebKit/537.36 (KHTML, like Gecko) Chrome/128.0.0.0 Safari/537.36" version="26.0.16">
  <diagram id="C5RBs43oDa-KdzZeNtuy" name="Page-1">
    <mxGraphModel dx="1026" dy="650" grid="1" gridSize="10" guides="1" tooltips="1" connect="1" arrows="1" fold="1" page="1" pageScale="1" pageWidth="827" pageHeight="1169" math="0" shadow="0">
      <root>
        <mxCell id="WIyWlLk6GJQsqaUBKTNV-0" />
        <mxCell id="WIyWlLk6GJQsqaUBKTNV-1" parent="WIyWlLk6GJQsqaUBKTNV-0" />
        <mxCell id="zkfFHV4jXpPFQw0GAbJ--0" value="Person" style="swimlane;fontStyle=2;align=center;verticalAlign=top;childLayout=stackLayout;horizontal=1;startSize=26;horizontalStack=0;resizeParent=1;resizeLast=0;collapsible=1;marginBottom=0;rounded=0;shadow=0;strokeWidth=1;" parent="WIyWlLk6GJQsqaUBKTNV-1" vertex="1">
          <mxGeometry x="220" y="120" width="160" height="138" as="geometry">
            <mxRectangle x="230" y="140" width="160" height="26" as="alternateBounds" />
          </mxGeometry>
        </mxCell>
        <mxCell id="zkfFHV4jXpPFQw0GAbJ--1" value="Name" style="text;align=left;verticalAlign=top;spacingLeft=4;spacingRight=4;overflow=hidden;rotatable=0;points=[[0,0.5],[1,0.5]];portConstraint=eastwest;" parent="zkfFHV4jXpPFQw0GAbJ--0" vertex="1">
          <mxGeometry y="26" width="160" height="26" as="geometry" />
        </mxCell>
        <mxCell id="zkfFHV4jXpPFQw0GAbJ--2" value="Phone Number" style="text;align=left;verticalAlign=top;spacingLeft=4;spacingRight=4;overflow=hidden;rotatable=0;points=[[0,0.5],[1,0.5]];portConstraint=eastwest;rounded=0;shadow=0;html=0;" parent="zkfFHV4jXpPFQw0GAbJ--0" vertex="1">
          <mxGeometry y="52" width="160" height="26" as="geometry" />
        </mxCell>
        <mxCell id="zkfFHV4jXpPFQw0GAbJ--3" value="Email Address" style="text;align=left;verticalAlign=top;spacingLeft=4;spacingRight=4;overflow=hidden;rotatable=0;points=[[0,0.5],[1,0.5]];portConstraint=eastwest;rounded=0;shadow=0;html=0;" parent="zkfFHV4jXpPFQw0GAbJ--0" vertex="1">
          <mxGeometry y="78" width="160" height="26" as="geometry" />
        </mxCell>
        <mxCell id="zkfFHV4jXpPFQw0GAbJ--4" value="" style="line;html=1;strokeWidth=1;align=left;verticalAlign=middle;spacingTop=-1;spacingLeft=3;spacingRight=3;rotatable=0;labelPosition=right;points=[];portConstraint=eastwest;" parent="zkfFHV4jXpPFQw0GAbJ--0" vertex="1">
          <mxGeometry y="104" width="160" height="8" as="geometry" />
        </mxCell>
        <mxCell id="zkfFHV4jXpPFQw0GAbJ--5" value="Purchase Parking Pass" style="text;align=left;verticalAlign=top;spacingLeft=4;spacingRight=4;overflow=hidden;rotatable=0;points=[[0,0.5],[1,0.5]];portConstraint=eastwest;" parent="zkfFHV4jXpPFQw0GAbJ--0" vertex="1">
          <mxGeometry y="112" width="160" height="26" as="geometry" />
        </mxCell>
        <mxCell id="zkfFHV4jXpPFQw0GAbJ--6" value="Student" style="swimlane;fontStyle=0;align=center;verticalAlign=top;childLayout=stackLayout;horizontal=1;startSize=26;horizontalStack=0;resizeParent=1;resizeLast=0;collapsible=1;marginBottom=0;rounded=0;shadow=0;strokeWidth=1;" parent="WIyWlLk6GJQsqaUBKTNV-1" vertex="1">
          <mxGeometry x="120" y="360" width="160" height="138" as="geometry">
            <mxRectangle x="130" y="380" width="160" height="26" as="alternateBounds" />
          </mxGeometry>
        </mxCell>
        <mxCell id="zkfFHV4jXpPFQw0GAbJ--7" value="Student Number" style="text;align=left;verticalAlign=top;spacingLeft=4;spacingRight=4;overflow=hidden;rotatable=0;points=[[0,0.5],[1,0.5]];portConstraint=eastwest;" parent="zkfFHV4jXpPFQw0GAbJ--6" vertex="1">
          <mxGeometry y="26" width="160" height="26" as="geometry" />
        </mxCell>
        <mxCell id="zkfFHV4jXpPFQw0GAbJ--8" value="Average Mark" style="text;align=left;verticalAlign=top;spacingLeft=4;spacingRight=4;overflow=hidden;rotatable=0;points=[[0,0.5],[1,0.5]];portConstraint=eastwest;rounded=0;shadow=0;html=0;" parent="zkfFHV4jXpPFQw0GAbJ--6" vertex="1">
          <mxGeometry y="52" width="160" height="26" as="geometry" />
        </mxCell>
        <mxCell id="zkfFHV4jXpPFQw0GAbJ--9" value="" style="line;html=1;strokeWidth=1;align=left;verticalAlign=middle;spacingTop=-1;spacingLeft=3;spacingRight=3;rotatable=0;labelPosition=right;points=[];portConstraint=eastwest;" parent="zkfFHV4jXpPFQw0GAbJ--6" vertex="1">
          <mxGeometry y="78" width="160" height="8" as="geometry" />
        </mxCell>
        <mxCell id="zkfFHV4jXpPFQw0GAbJ--10" value="Is Eligible To Enroll" style="text;align=left;verticalAlign=top;spacingLeft=4;spacingRight=4;overflow=hidden;rotatable=0;points=[[0,0.5],[1,0.5]];portConstraint=eastwest;fontStyle=4" parent="zkfFHV4jXpPFQw0GAbJ--6" vertex="1">
          <mxGeometry y="86" width="160" height="26" as="geometry" />
        </mxCell>
        <mxCell id="zkfFHV4jXpPFQw0GAbJ--11" value="Get Seminars Taken" style="text;align=left;verticalAlign=top;spacingLeft=4;spacingRight=4;overflow=hidden;rotatable=0;points=[[0,0.5],[1,0.5]];portConstraint=eastwest;" parent="zkfFHV4jXpPFQw0GAbJ--6" vertex="1">
          <mxGeometry y="112" width="160" height="26" as="geometry" />
        </mxCell>
        <mxCell id="zkfFHV4jXpPFQw0GAbJ--12" value="" style="endArrow=block;endSize=10;endFill=0;shadow=0;strokeWidth=1;rounded=0;curved=0;edgeStyle=elbowEdgeStyle;elbow=vertical;" parent="WIyWlLk6GJQsqaUBKTNV-1" source="zkfFHV4jXpPFQw0GAbJ--6" target="zkfFHV4jXpPFQw0GAbJ--0" edge="1">
          <mxGeometry width="160" relative="1" as="geometry">
            <mxPoint x="200" y="203" as="sourcePoint" />
            <mxPoint x="200" y="203" as="targetPoint" />
          </mxGeometry>
        </mxCell>
        <mxCell id="zkfFHV4jXpPFQw0GAbJ--13" value="Professor" style="swimlane;fontStyle=0;align=center;verticalAlign=top;childLayout=stackLayout;horizontal=1;startSize=26;horizontalStack=0;resizeParent=1;resizeLast=0;collapsible=1;marginBottom=0;rounded=0;shadow=0;strokeWidth=1;" parent="WIyWlLk6GJQsqaUBKTNV-1" vertex="1">
          <mxGeometry x="330" y="360" width="160" height="70" as="geometry">
            <mxRectangle x="340" y="380" width="170" height="26" as="alternateBounds" />
          </mxGeometry>
        </mxCell>
        <mxCell id="zkfFHV4jXpPFQw0GAbJ--14" value="Salary" style="text;align=left;verticalAlign=top;spacingLeft=4;spacingRight=4;overflow=hidden;rotatable=0;points=[[0,0.5],[1,0.5]];portConstraint=eastwest;" parent="zkfFHV4jXpPFQw0GAbJ--13" vertex="1">
          <mxGeometry y="26" width="160" height="26" as="geometry" />
        </mxCell>
        <mxCell id="zkfFHV4jXpPFQw0GAbJ--15" value="" style="line;html=1;strokeWidth=1;align=left;verticalAlign=middle;spacingTop=-1;spacingLeft=3;spacingRight=3;rotatable=0;labelPosition=right;points=[];portConstraint=eastwest;" parent="zkfFHV4jXpPFQw0GAbJ--13" vertex="1">
          <mxGeometry y="52" width="160" height="8" as="geometry" />
        </mxCell>
        <mxCell id="zkfFHV4jXpPFQw0GAbJ--16" value="" style="endArrow=block;endSize=10;endFill=0;shadow=0;strokeWidth=1;rounded=0;curved=0;edgeStyle=elbowEdgeStyle;elbow=vertical;" parent="WIyWlLk6GJQsqaUBKTNV-1" source="zkfFHV4jXpPFQw0GAbJ--13" target="zkfFHV4jXpPFQw0GAbJ--0" edge="1">
          <mxGeometry width="160" relative="1" as="geometry">
            <mxPoint x="210" y="373" as="sourcePoint" />
            <mxPoint x="310" y="271" as="targetPoint" />
          </mxGeometry>
        </mxCell>
        <mxCell id="zkfFHV4jXpPFQw0GAbJ--17" value="Address" style="swimlane;fontStyle=0;align=center;verticalAlign=top;childLayout=stackLayout;horizontal=1;startSize=26;horizontalStack=0;resizeParent=1;resizeLast=0;collapsible=1;marginBottom=0;rounded=0;shadow=0;strokeWidth=1;" parent="WIyWlLk6GJQsqaUBKTNV-1" vertex="1">
          <mxGeometry x="508" y="120" width="160" height="216" as="geometry">
            <mxRectangle x="550" y="140" width="160" height="26" as="alternateBounds" />
          </mxGeometry>
        </mxCell>
        <mxCell id="zkfFHV4jXpPFQw0GAbJ--18" value="Street" style="text;align=left;verticalAlign=top;spacingLeft=4;spacingRight=4;overflow=hidden;rotatable=0;points=[[0,0.5],[1,0.5]];portConstraint=eastwest;" parent="zkfFHV4jXpPFQw0GAbJ--17" vertex="1">
          <mxGeometry y="26" width="160" height="26" as="geometry" />
        </mxCell>
        <mxCell id="zkfFHV4jXpPFQw0GAbJ--19" value="City" style="text;align=left;verticalAlign=top;spacingLeft=4;spacingRight=4;overflow=hidden;rotatable=0;points=[[0,0.5],[1,0.5]];portConstraint=eastwest;rounded=0;shadow=0;html=0;" parent="zkfFHV4jXpPFQw0GAbJ--17" vertex="1">
          <mxGeometry y="52" width="160" height="26" as="geometry" />
        </mxCell>
        <mxCell id="zkfFHV4jXpPFQw0GAbJ--20" value="State" style="text;align=left;verticalAlign=top;spacingLeft=4;spacingRight=4;overflow=hidden;rotatable=0;points=[[0,0.5],[1,0.5]];portConstraint=eastwest;rounded=0;shadow=0;html=0;" parent="zkfFHV4jXpPFQw0GAbJ--17" vertex="1">
          <mxGeometry y="78" width="160" height="26" as="geometry" />
        </mxCell>
        <mxCell id="zkfFHV4jXpPFQw0GAbJ--21" value="Postal Code" style="text;align=left;verticalAlign=top;spacingLeft=4;spacingRight=4;overflow=hidden;rotatable=0;points=[[0,0.5],[1,0.5]];portConstraint=eastwest;rounded=0;shadow=0;html=0;" parent="zkfFHV4jXpPFQw0GAbJ--17" vertex="1">
          <mxGeometry y="104" width="160" height="26" as="geometry" />
        </mxCell>
        <mxCell id="zkfFHV4jXpPFQw0GAbJ--22" value="Country" style="text;align=left;verticalAlign=top;spacingLeft=4;spacingRight=4;overflow=hidden;rotatable=0;points=[[0,0.5],[1,0.5]];portConstraint=eastwest;rounded=0;shadow=0;html=0;" parent="zkfFHV4jXpPFQw0GAbJ--17" vertex="1">
          <mxGeometry y="130" width="160" height="26" as="geometry" />
        </mxCell>
        <mxCell id="zkfFHV4jXpPFQw0GAbJ--23" value="" style="line;html=1;strokeWidth=1;align=left;verticalAlign=middle;spacingTop=-1;spacingLeft=3;spacingRight=3;rotatable=0;labelPosition=right;points=[];portConstraint=eastwest;" parent="zkfFHV4jXpPFQw0GAbJ--17" vertex="1">
          <mxGeometry y="156" width="160" height="8" as="geometry" />
        </mxCell>
        <mxCell id="zkfFHV4jXpPFQw0GAbJ--24" value="Validate" style="text;align=left;verticalAlign=top;spacingLeft=4;spacingRight=4;overflow=hidden;rotatable=0;points=[[0,0.5],[1,0.5]];portConstraint=eastwest;" parent="zkfFHV4jXpPFQw0GAbJ--17" vertex="1">
          <mxGeometry y="164" width="160" height="26" as="geometry" />
        </mxCell>
        <mxCell id="zkfFHV4jXpPFQw0GAbJ--25" value="Output As Label" style="text;align=left;verticalAlign=top;spacingLeft=4;spacingRight=4;overflow=hidden;rotatable=0;points=[[0,0.5],[1,0.5]];portConstraint=eastwest;" parent="zkfFHV4jXpPFQw0GAbJ--17" vertex="1">
          <mxGeometry y="190" width="160" height="26" as="geometry" />
        </mxCell>
        <mxCell id="zkfFHV4jXpPFQw0GAbJ--26" value="" style="endArrow=open;shadow=0;strokeWidth=1;rounded=0;curved=0;endFill=1;edgeStyle=elbowEdgeStyle;elbow=vertical;" parent="WIyWlLk6GJQsqaUBKTNV-1" source="zkfFHV4jXpPFQw0GAbJ--0" target="zkfFHV4jXpPFQw0GAbJ--17" edge="1">
          <mxGeometry x="0.5" y="41" relative="1" as="geometry">
            <mxPoint x="380" y="192" as="sourcePoint" />
            <mxPoint x="540" y="192" as="targetPoint" />
            <mxPoint x="-40" y="32" as="offset" />
          </mxGeometry>
        </mxCell>
        <mxCell id="zkfFHV4jXpPFQw0GAbJ--27" value="0..1" style="resizable=0;align=left;verticalAlign=bottom;labelBackgroundColor=none;fontSize=12;" parent="zkfFHV4jXpPFQw0GAbJ--26" connectable="0" vertex="1">
          <mxGeometry x="-1" relative="1" as="geometry">
            <mxPoint y="4" as="offset" />
          </mxGeometry>
        </mxCell>
        <mxCell id="zkfFHV4jXpPFQw0GAbJ--28" value="1" style="resizable=0;align=right;verticalAlign=bottom;labelBackgroundColor=none;fontSize=12;" parent="zkfFHV4jXpPFQw0GAbJ--26" connectable="0" vertex="1">
          <mxGeometry x="1" relative="1" as="geometry">
            <mxPoint x="-7" y="4" as="offset" />
          </mxGeometry>
        </mxCell>
        <mxCell id="zkfFHV4jXpPFQw0GAbJ--29" value="lives at" style="text;html=1;resizable=0;points=[];;align=center;verticalAlign=middle;labelBackgroundColor=none;rounded=0;shadow=0;strokeWidth=1;fontSize=12;" parent="zkfFHV4jXpPFQw0GAbJ--26" vertex="1" connectable="0">
          <mxGeometry x="0.5" y="49" relative="1" as="geometry">
            <mxPoint x="-38" y="40" as="offset" />
          </mxGeometry>
        </mxCell>
        <mxCell id="m-Lq6_jyWwLvtcBr7-ee-1" value="&lt;p style=&quot;margin-top: 0px;&quot;&gt;colcon build&lt;br&gt;source install/setup.bash&lt;br&gt;ros2 launch demo_pkg_launch.xml&lt;br&gt;ros2 launch rosbridge_server rosbridge_websocket_launch.xml&lt;/p&gt;&lt;div&gt;&lt;br&gt;&lt;/div&gt;&lt;div&gt;&lt;div&gt;# 创建新的功能包 https://dqwang.blog.csdn.net/article/details/132469980?spm=1001.2101.3001.6650.7&amp;amp;utm_medium=distribute.pc_relevant.none-task-blog-2%7Edefault%7EBlogCommendFromBaidu%7ERate-7-132469980-blog-131327065.235%5Ev43%5Epc_blog_bottom_relevance_base9&amp;amp;depth_1-utm_source=distribute.pc_relevant.none-task-blog-2%7Edefault%7EBlogCommendFromBaidu%7ERate-7-132469980-blog-131327065.235%5Ev43%5Epc_blog_bottom_relevance_base9&amp;amp;utm_relevant_index=14&lt;/div&gt;&lt;div&gt;cd ros2_ws/src&lt;/div&gt;&lt;div&gt;ros2 pkg create --build-type ament_cmake my_ros2_package&lt;/div&gt;&lt;/div&gt;&lt;div&gt;&lt;br&gt;&lt;/div&gt;&lt;div&gt;&lt;div&gt;./mediamtx&lt;/div&gt;&lt;div&gt;ffmpeg -re -stream_loop -1 -i input.mp4 -c copy -f rtsp rtsp://127.0.0.1:8554/video&lt;/div&gt;&lt;/div&gt;&lt;div&gt;&lt;br&gt;&lt;/div&gt;&lt;div&gt;&lt;br&gt;&lt;/div&gt;&lt;div&gt;&lt;div style=&quot;color: rgb(204, 204, 204); background-color: rgb(31, 31, 31); font-family: Menlo, Monaco, &amp;quot;Courier New&amp;quot;, monospace; line-height: 18px; white-space: pre;&quot;&gt;&lt;div&gt;&lt;span style=&quot;color: #c586c0;&quot;&gt;from&lt;/span&gt; &lt;span style=&quot;color: #4ec9b0;&quot;&gt;multiprocessing&lt;/span&gt; &lt;span style=&quot;color: #c586c0;&quot;&gt;import&lt;/span&gt; &lt;span style=&quot;color: #4ec9b0;&quot;&gt;shared_memory&lt;/span&gt;, &lt;span style=&quot;color: #4ec9b0;&quot;&gt;resource_tracker&lt;/span&gt;&lt;/div&gt;&lt;div&gt;&lt;span style=&quot;color: #c586c0;&quot;&gt;import&lt;/span&gt; &lt;span style=&quot;color: #4ec9b0;&quot;&gt;cv2&lt;/span&gt;&lt;/div&gt;&lt;div&gt;&lt;span style=&quot;color: #c586c0;&quot;&gt;import&lt;/span&gt; &lt;span style=&quot;color: #4ec9b0;&quot;&gt;numpy&lt;/span&gt; &lt;span style=&quot;color: #c586c0;&quot;&gt;as&lt;/span&gt; &lt;span style=&quot;color: #4ec9b0;&quot;&gt;np&lt;/span&gt;&lt;/div&gt;&lt;div&gt;&lt;span style=&quot;color: #c586c0;&quot;&gt;import&lt;/span&gt; &lt;span style=&quot;color: #4ec9b0;&quot;&gt;time&lt;/span&gt; &lt;/div&gt;&lt;br&gt;&lt;div&gt;&lt;span style=&quot;color: #569cd6;&quot;&gt;class&lt;/span&gt; &lt;span style=&quot;color: #4ec9b0;&quot;&gt;FrameInfo&lt;/span&gt;:&lt;/div&gt;&lt;div&gt;    &lt;span style=&quot;color: #569cd6;&quot;&gt;def&lt;/span&gt; &lt;span style=&quot;color: #dcdcaa;&quot;&gt;__init__&lt;/span&gt;(&lt;span style=&quot;color: #9cdcfe;&quot;&gt;self&lt;/span&gt;, &lt;span style=&quot;color: #9cdcfe;&quot;&gt;sec&lt;/span&gt;: &lt;span style=&quot;color: #4ec9b0;&quot;&gt;int&lt;/span&gt;, &lt;span style=&quot;color: #9cdcfe;&quot;&gt;nsec&lt;/span&gt;: &lt;span style=&quot;color: #4ec9b0;&quot;&gt;int&lt;/span&gt;, &lt;span style=&quot;color: #9cdcfe;&quot;&gt;data&lt;/span&gt;: &lt;span style=&quot;color: #4ec9b0;&quot;&gt;bytes&lt;/span&gt;):&lt;/div&gt;&lt;div&gt;        &lt;span style=&quot;color: #9cdcfe;&quot;&gt;self&lt;/span&gt;.&lt;span style=&quot;color: #9cdcfe;&quot;&gt;sec&lt;/span&gt; &lt;span style=&quot;color: #d4d4d4;&quot;&gt;=&lt;/span&gt; &lt;span style=&quot;color: #9cdcfe;&quot;&gt;sec&lt;/span&gt;&lt;/div&gt;&lt;div&gt;        &lt;span style=&quot;color: #9cdcfe;&quot;&gt;self&lt;/span&gt;.&lt;span style=&quot;color: #9cdcfe;&quot;&gt;nsec&lt;/span&gt; &lt;span style=&quot;color: #d4d4d4;&quot;&gt;=&lt;/span&gt; &lt;span style=&quot;color: #9cdcfe;&quot;&gt;nsec&lt;/span&gt;&lt;/div&gt;&lt;div&gt;        &lt;span style=&quot;color: #9cdcfe;&quot;&gt;self&lt;/span&gt;.&lt;span style=&quot;color: #9cdcfe;&quot;&gt;data&lt;/span&gt; &lt;span style=&quot;color: #d4d4d4;&quot;&gt;=&lt;/span&gt; &lt;span style=&quot;color: #9cdcfe;&quot;&gt;data&lt;/span&gt;&lt;/div&gt;&lt;div&gt;        &lt;span style=&quot;color: #9cdcfe;&quot;&gt;self&lt;/span&gt;.&lt;span style=&quot;color: #9cdcfe;&quot;&gt;data_len&lt;/span&gt; &lt;span style=&quot;color: #d4d4d4;&quot;&gt;=&lt;/span&gt; &lt;span style=&quot;color: #dcdcaa;&quot;&gt;len&lt;/span&gt;(&lt;span style=&quot;color: #9cdcfe;&quot;&gt;self&lt;/span&gt;.&lt;span style=&quot;color: #9cdcfe;&quot;&gt;data&lt;/span&gt;)&lt;/div&gt;&lt;div&gt;    &lt;/div&gt;&lt;div&gt;    &lt;span style=&quot;color: #569cd6;&quot;&gt;def&lt;/span&gt; &lt;span style=&quot;color: #dcdcaa;&quot;&gt;to_bytes&lt;/span&gt;(&lt;span style=&quot;color: #9cdcfe;&quot;&gt;self&lt;/span&gt;) -&amp;gt; &lt;span style=&quot;color: #4ec9b0;&quot;&gt;bytes&lt;/span&gt;:&lt;/div&gt;&lt;div&gt;        &lt;span style=&quot;color: #c586c0;&quot;&gt;return&lt;/span&gt; (&lt;span style=&quot;color: #9cdcfe;&quot;&gt;self&lt;/span&gt;.&lt;span style=&quot;color: #9cdcfe;&quot;&gt;sec&lt;/span&gt;.&lt;span style=&quot;color: #dcdcaa;&quot;&gt;to_bytes&lt;/span&gt;(&lt;span style=&quot;color: #b5cea8;&quot;&gt;4&lt;/span&gt;,&lt;span style=&quot;color: #9cdcfe;&quot;&gt;byteorder&lt;/span&gt;&lt;span style=&quot;color: #d4d4d4;&quot;&gt;=&lt;/span&gt;&lt;span style=&quot;color: #ce9178;&quot;&gt;&quot;big&quot;&lt;/span&gt;) &lt;/div&gt;&lt;div&gt;                &lt;span style=&quot;color: #d4d4d4;&quot;&gt;+&lt;/span&gt; &lt;span style=&quot;color: #9cdcfe;&quot;&gt;self&lt;/span&gt;.&lt;span style=&quot;color: #9cdcfe;&quot;&gt;nsec&lt;/span&gt;.&lt;span style=&quot;color: #dcdcaa;&quot;&gt;to_bytes&lt;/span&gt;(&lt;span style=&quot;color: #b5cea8;&quot;&gt;4&lt;/span&gt;,&lt;span style=&quot;color: #9cdcfe;&quot;&gt;byteorder&lt;/span&gt;&lt;span style=&quot;color: #d4d4d4;&quot;&gt;=&lt;/span&gt;&lt;span style=&quot;color: #ce9178;&quot;&gt;&quot;big&quot;&lt;/span&gt;) &lt;/div&gt;&lt;div&gt;                &lt;span style=&quot;color: #d4d4d4;&quot;&gt;+&lt;/span&gt; &lt;span style=&quot;color: #9cdcfe;&quot;&gt;self&lt;/span&gt;.&lt;span style=&quot;color: #9cdcfe;&quot;&gt;data_len&lt;/span&gt;.&lt;span style=&quot;color: #dcdcaa;&quot;&gt;to_bytes&lt;/span&gt;(&lt;span style=&quot;color: #b5cea8;&quot;&gt;4&lt;/span&gt;,&lt;span style=&quot;color: #9cdcfe;&quot;&gt;byteorder&lt;/span&gt;&lt;span style=&quot;color: #d4d4d4;&quot;&gt;=&lt;/span&gt;&lt;span style=&quot;color: #ce9178;&quot;&gt;&quot;big&quot;&lt;/span&gt;)&lt;/div&gt;&lt;div&gt;                &lt;span style=&quot;color: #d4d4d4;&quot;&gt;+&lt;/span&gt; &lt;span style=&quot;color: #9cdcfe;&quot;&gt;self&lt;/span&gt;.&lt;span style=&quot;color: #9cdcfe;&quot;&gt;data&lt;/span&gt;)&lt;/div&gt;&lt;br&gt;&lt;div&gt;    &lt;span style=&quot;color: #dcdcaa;&quot;&gt;@&lt;/span&gt;&lt;span style=&quot;color: #4ec9b0;&quot;&gt;classmethod&lt;/span&gt;&lt;/div&gt;&lt;div&gt;    &lt;span style=&quot;color: #569cd6;&quot;&gt;def&lt;/span&gt; &lt;span style=&quot;color: #dcdcaa;&quot;&gt;from_bytes&lt;/span&gt;(&lt;span style=&quot;color: #9cdcfe;&quot;&gt;cls&lt;/span&gt;, &lt;span style=&quot;color: #9cdcfe;&quot;&gt;data&lt;/span&gt;: &lt;span style=&quot;color: #4ec9b0;&quot;&gt;bytes&lt;/span&gt;):&lt;/div&gt;&lt;div&gt;        &lt;span style=&quot;color: #9cdcfe;&quot;&gt;sec&lt;/span&gt; &lt;span style=&quot;color: #d4d4d4;&quot;&gt;=&lt;/span&gt; &lt;span style=&quot;color: #4ec9b0;&quot;&gt;int&lt;/span&gt;.&lt;span style=&quot;color: #dcdcaa;&quot;&gt;from_bytes&lt;/span&gt;(&lt;span style=&quot;color: #9cdcfe;&quot;&gt;data&lt;/span&gt;[&lt;span style=&quot;color: #b5cea8;&quot;&gt;0&lt;/span&gt;:&lt;span style=&quot;color: #b5cea8;&quot;&gt;4&lt;/span&gt;], &lt;span style=&quot;color: #ce9178;&quot;&gt;&quot;big&quot;&lt;/span&gt;)&lt;/div&gt;&lt;div&gt;        &lt;span style=&quot;color: #9cdcfe;&quot;&gt;nsec&lt;/span&gt; &lt;span style=&quot;color: #d4d4d4;&quot;&gt;=&lt;/span&gt; &lt;span style=&quot;color: #4ec9b0;&quot;&gt;int&lt;/span&gt;.&lt;span style=&quot;color: #dcdcaa;&quot;&gt;from_bytes&lt;/span&gt;(&lt;span style=&quot;color: #9cdcfe;&quot;&gt;data&lt;/span&gt;[&lt;span style=&quot;color: #b5cea8;&quot;&gt;4&lt;/span&gt;:&lt;span style=&quot;color: #b5cea8;&quot;&gt;8&lt;/span&gt;], &lt;span style=&quot;color: #ce9178;&quot;&gt;&quot;big&quot;&lt;/span&gt;)&lt;/div&gt;&lt;div&gt;        &lt;span style=&quot;color: #9cdcfe;&quot;&gt;data_len&lt;/span&gt; &lt;span style=&quot;color: #d4d4d4;&quot;&gt;=&lt;/span&gt; &lt;span style=&quot;color: #4ec9b0;&quot;&gt;int&lt;/span&gt;.&lt;span style=&quot;color: #dcdcaa;&quot;&gt;from_bytes&lt;/span&gt;(&lt;span style=&quot;color: #9cdcfe;&quot;&gt;data&lt;/span&gt;[&lt;span style=&quot;color: #b5cea8;&quot;&gt;8&lt;/span&gt;:&lt;span style=&quot;color: #b5cea8;&quot;&gt;12&lt;/span&gt;], &lt;span style=&quot;color: #ce9178;&quot;&gt;&quot;big&quot;&lt;/span&gt;)&lt;/div&gt;&lt;div&gt;        &lt;span style=&quot;color: #c586c0;&quot;&gt;return&lt;/span&gt; &lt;span style=&quot;color: #9cdcfe;&quot;&gt;cls&lt;/span&gt;(&lt;span style=&quot;color: #9cdcfe;&quot;&gt;sec&lt;/span&gt;, &lt;span style=&quot;color: #9cdcfe;&quot;&gt;nsec&lt;/span&gt;, &lt;span style=&quot;color: #9cdcfe;&quot;&gt;data&lt;/span&gt;[&lt;span style=&quot;color: #b5cea8;&quot;&gt;12&lt;/span&gt;:&lt;span style=&quot;color: #b5cea8;&quot;&gt;12&lt;/span&gt;&lt;span style=&quot;color: #d4d4d4;&quot;&gt;+&lt;/span&gt;&lt;span style=&quot;color: #9cdcfe;&quot;&gt;data_len&lt;/span&gt;])&lt;/div&gt;&lt;br&gt;&lt;div&gt;    &lt;span style=&quot;color: #569cd6;&quot;&gt;def&lt;/span&gt; &lt;span style=&quot;color: #dcdcaa;&quot;&gt;__str__&lt;/span&gt;(&lt;span style=&quot;color: #9cdcfe;&quot;&gt;self&lt;/span&gt;):&lt;/div&gt;&lt;div&gt;        &lt;span style=&quot;color: #c586c0;&quot;&gt;assert&lt;/span&gt; &lt;span style=&quot;color: #dcdcaa;&quot;&gt;len&lt;/span&gt;(&lt;span style=&quot;color: #9cdcfe;&quot;&gt;self&lt;/span&gt;.&lt;span style=&quot;color: #9cdcfe;&quot;&gt;data&lt;/span&gt;) &lt;span style=&quot;color: #d4d4d4;&quot;&gt;&amp;gt;=&lt;/span&gt; &lt;span style=&quot;color: #b5cea8;&quot;&gt;8&lt;/span&gt;&lt;/div&gt;&lt;div&gt;        &lt;span style=&quot;color: #c586c0;&quot;&gt;return&lt;/span&gt; &lt;span style=&quot;color: #569cd6;&quot;&gt;f&lt;/span&gt;&lt;span style=&quot;color: #ce9178;&quot;&gt;&quot;sec:&lt;/span&gt;&lt;span style=&quot;color: #569cd6;&quot;&gt;{&lt;/span&gt;&lt;span style=&quot;color: #9cdcfe;&quot;&gt;self&lt;/span&gt;.&lt;span style=&quot;color: #9cdcfe;&quot;&gt;sec&lt;/span&gt;&lt;span style=&quot;color: #569cd6;&quot;&gt;}&lt;/span&gt;&lt;span style=&quot;color: #ce9178;&quot;&gt;, nsec:&lt;/span&gt;&lt;span style=&quot;color: #569cd6;&quot;&gt;{&lt;/span&gt;&lt;span style=&quot;color: #9cdcfe;&quot;&gt;self&lt;/span&gt;.&lt;span style=&quot;color: #9cdcfe;&quot;&gt;nsec&lt;/span&gt;&lt;span style=&quot;color: #569cd6;&quot;&gt;}&lt;/span&gt;&lt;span style=&quot;color: #ce9178;&quot;&gt;, len: &lt;/span&gt;&lt;span style=&quot;color: #569cd6;&quot;&gt;{&lt;/span&gt;&lt;span style=&quot;color: #9cdcfe;&quot;&gt;self&lt;/span&gt;.&lt;span style=&quot;color: #9cdcfe;&quot;&gt;data_len&lt;/span&gt;&lt;span style=&quot;color: #569cd6;&quot;&gt;}&lt;/span&gt;&lt;span style=&quot;color: #ce9178;&quot;&gt;, data: &lt;/span&gt;&lt;span style=&quot;color: #569cd6;&quot;&gt;{&lt;/span&gt;&lt;span style=&quot;color: #9cdcfe;&quot;&gt;self&lt;/span&gt;.&lt;span style=&quot;color: #9cdcfe;&quot;&gt;data&lt;/span&gt;[&lt;span style=&quot;color: #b5cea8;&quot;&gt;0&lt;/span&gt;:&lt;span style=&quot;color: #b5cea8;&quot;&gt;8&lt;/span&gt;]&lt;span style=&quot;color: #569cd6;&quot;&gt;}&lt;/span&gt;&lt;span style=&quot;color: #ce9178;&quot;&gt;&quot;&lt;/span&gt;&lt;/div&gt;&lt;br&gt;&lt;br&gt;&lt;div&gt;&lt;span style=&quot;color: #569cd6;&quot;&gt;class&lt;/span&gt; &lt;span style=&quot;color: #4ec9b0;&quot;&gt;ShareMemoryFrameCache&lt;/span&gt;:&lt;/div&gt;&lt;div&gt;    &lt;/div&gt;&lt;div&gt;    &lt;span style=&quot;color: #569cd6;&quot;&gt;def&lt;/span&gt; &lt;span style=&quot;color: #dcdcaa;&quot;&gt;__init__&lt;/span&gt;(&lt;span style=&quot;color: #9cdcfe;&quot;&gt;self&lt;/span&gt;, &lt;span style=&quot;color: #9cdcfe;&quot;&gt;name&lt;/span&gt;, &lt;span style=&quot;color: #9cdcfe;&quot;&gt;frame_shape_hwc&lt;/span&gt;, &lt;span style=&quot;color: #9cdcfe;&quot;&gt;MAX_FRAME_COUNT&lt;/span&gt;):&lt;/div&gt;&lt;div&gt;        &lt;span style=&quot;color: #9cdcfe;&quot;&gt;self&lt;/span&gt;.&lt;span style=&quot;color: #9cdcfe;&quot;&gt;name&lt;/span&gt; &lt;span style=&quot;color: #d4d4d4;&quot;&gt;=&lt;/span&gt; &lt;span style=&quot;color: #9cdcfe;&quot;&gt;name&lt;/span&gt;&lt;/div&gt;&lt;div&gt;        &lt;span style=&quot;color: #9cdcfe;&quot;&gt;self&lt;/span&gt;.&lt;span style=&quot;color: #9cdcfe;&quot;&gt;frame_shape_hwc&lt;/span&gt; &lt;span style=&quot;color: #d4d4d4;&quot;&gt;=&lt;/span&gt; &lt;span style=&quot;color: #9cdcfe;&quot;&gt;frame_shape_hwc&lt;/span&gt;&lt;/div&gt;&lt;div&gt;        &lt;span style=&quot;color: #9cdcfe;&quot;&gt;self&lt;/span&gt;.&lt;span style=&quot;color: #9cdcfe;&quot;&gt;MAX_FRAME_COUNT&lt;/span&gt; &lt;span style=&quot;color: #d4d4d4;&quot;&gt;=&lt;/span&gt; &lt;span style=&quot;color: #9cdcfe;&quot;&gt;MAX_FRAME_COUNT&lt;/span&gt;&lt;/div&gt;&lt;div&gt;        &lt;span style=&quot;color: #9cdcfe;&quot;&gt;self&lt;/span&gt;.&lt;span style=&quot;color: #9cdcfe;&quot;&gt;frame_timestamp_size_bytes&lt;/span&gt; &lt;span style=&quot;color: #d4d4d4;&quot;&gt;=&lt;/span&gt; &lt;span style=&quot;color: #b5cea8;&quot;&gt;12&lt;/span&gt;&lt;/div&gt;&lt;div&gt;        &lt;span style=&quot;color: #6a9955;&quot;&gt;# cache 的索引区总长度&lt;/span&gt;&lt;/div&gt;&lt;div&gt;        &lt;span style=&quot;color: #9cdcfe;&quot;&gt;self&lt;/span&gt;.&lt;span style=&quot;color: #9cdcfe;&quot;&gt;frame_timestamps_size_bytes&lt;/span&gt; &lt;span style=&quot;color: #d4d4d4;&quot;&gt;=&lt;/span&gt; &lt;span style=&quot;color: #9cdcfe;&quot;&gt;self&lt;/span&gt;.&lt;span style=&quot;color: #9cdcfe;&quot;&gt;MAX_FRAME_COUNT&lt;/span&gt; &lt;span style=&quot;color: #d4d4d4;&quot;&gt;*&lt;/span&gt; &lt;span style=&quot;color: #9cdcfe;&quot;&gt;self&lt;/span&gt;.&lt;span style=&quot;color: #9cdcfe;&quot;&gt;frame_timestamp_size_bytes&lt;/span&gt;&lt;/div&gt;&lt;div&gt;        &lt;span style=&quot;color: #6a9955;&quot;&gt;# cache 的数据区每帧数据的长度&lt;/span&gt;&lt;/div&gt;&lt;div&gt;        &lt;span style=&quot;color: #9cdcfe;&quot;&gt;self&lt;/span&gt;.&lt;span style=&quot;color: #9cdcfe;&quot;&gt;frame_info_size_bytes&lt;/span&gt; &lt;span style=&quot;color: #d4d4d4;&quot;&gt;=&lt;/span&gt; &lt;span style=&quot;color: #4ec9b0;&quot;&gt;np&lt;/span&gt;.&lt;span style=&quot;color: #dcdcaa;&quot;&gt;prod&lt;/span&gt;(&lt;span style=&quot;color: #9cdcfe;&quot;&gt;frame_shape_hwc&lt;/span&gt;) &lt;span style=&quot;color: #dcdcaa;&quot;&gt;+&lt;/span&gt; &lt;span style=&quot;color: #9cdcfe;&quot;&gt;self&lt;/span&gt;.&lt;span style=&quot;color: #9cdcfe;&quot;&gt;frame_timestamp_size_bytes&lt;/span&gt;&lt;/div&gt;&lt;div&gt;        &lt;span style=&quot;color: #6a9955;&quot;&gt;# cache 区的总长度&lt;/span&gt;&lt;/div&gt;&lt;div&gt;        &lt;span style=&quot;color: #9cdcfe;&quot;&gt;self&lt;/span&gt;.&lt;span style=&quot;color: #9cdcfe;&quot;&gt;menory_size_bytes&lt;/span&gt; &lt;span style=&quot;color: #d4d4d4;&quot;&gt;=&lt;/span&gt; &lt;span style=&quot;color: #9cdcfe;&quot;&gt;self&lt;/span&gt;.&lt;span style=&quot;color: #9cdcfe;&quot;&gt;frame_timestamps_size_bytes&lt;/span&gt; &lt;span style=&quot;color: #d4d4d4;&quot;&gt;+&lt;/span&gt; &lt;span style=&quot;color: #9cdcfe;&quot;&gt;self&lt;/span&gt;.&lt;span style=&quot;color: #9cdcfe;&quot;&gt;MAX_FRAME_COUNT&lt;/span&gt; &lt;span style=&quot;color: #dcdcaa;&quot;&gt;*&lt;/span&gt; &lt;span style=&quot;color: #9cdcfe;&quot;&gt;self&lt;/span&gt;.&lt;span style=&quot;color: #9cdcfe;&quot;&gt;frame_info_size_bytes&lt;/span&gt;&lt;/div&gt;&lt;div&gt;        &lt;span style=&quot;color: #9cdcfe;&quot;&gt;self&lt;/span&gt;.&lt;span style=&quot;color: #9cdcfe;&quot;&gt;shm&lt;/span&gt; &lt;span style=&quot;color: #d4d4d4;&quot;&gt;=&lt;/span&gt; &lt;span style=&quot;color: #569cd6;&quot;&gt;None&lt;/span&gt;&lt;/div&gt;&lt;div&gt;        &lt;span style=&quot;color: #9cdcfe;&quot;&gt;self&lt;/span&gt;.&lt;span style=&quot;color: #9cdcfe;&quot;&gt;idx&lt;/span&gt; &lt;span style=&quot;color: #d4d4d4;&quot;&gt;=&lt;/span&gt; &lt;span style=&quot;color: #b5cea8;&quot;&gt;0&lt;/span&gt;&lt;/div&gt;&lt;div&gt;        &lt;span style=&quot;color: #c586c0;&quot;&gt;try&lt;/span&gt;:&lt;/div&gt;&lt;div&gt;            &lt;span style=&quot;color: #9cdcfe;&quot;&gt;self&lt;/span&gt;.&lt;span style=&quot;color: #9cdcfe;&quot;&gt;shm&lt;/span&gt; &lt;span style=&quot;color: #d4d4d4;&quot;&gt;=&lt;/span&gt; &lt;span style=&quot;color: #4ec9b0;&quot;&gt;shared_memory&lt;/span&gt;.&lt;span style=&quot;color: #4ec9b0;&quot;&gt;SharedMemory&lt;/span&gt;(&lt;span style=&quot;color: #9cdcfe;&quot;&gt;create&lt;/span&gt;&lt;span style=&quot;color: #d4d4d4;&quot;&gt;=&lt;/span&gt;&lt;span style=&quot;color: #569cd6;&quot;&gt;False&lt;/span&gt;, &lt;span style=&quot;color: #9cdcfe;&quot;&gt;size&lt;/span&gt;&lt;span style=&quot;color: #d4d4d4;&quot;&gt;=&lt;/span&gt;&lt;span style=&quot;color: #9cdcfe;&quot;&gt;self&lt;/span&gt;.&lt;span style=&quot;color: #9cdcfe;&quot;&gt;menory_size_bytes&lt;/span&gt;, &lt;span style=&quot;color: #9cdcfe;&quot;&gt;name&lt;/span&gt; &lt;span style=&quot;color: #d4d4d4;&quot;&gt;=&lt;/span&gt; &lt;span style=&quot;color: #9cdcfe;&quot;&gt;self&lt;/span&gt;.&lt;span style=&quot;color: #9cdcfe;&quot;&gt;name&lt;/span&gt;)&lt;/div&gt;&lt;div&gt;            &lt;span style=&quot;color: #dcdcaa;&quot;&gt;print&lt;/span&gt;(&lt;span style=&quot;color: #569cd6;&quot;&gt;f&lt;/span&gt;&lt;span style=&quot;color: #ce9178;&quot;&gt;&quot;成功连接到共享内存 &lt;/span&gt;&lt;span style=&quot;color: #569cd6;&quot;&gt;{&lt;/span&gt;&lt;span style=&quot;color: #9cdcfe;&quot;&gt;self&lt;/span&gt;.&lt;span style=&quot;color: #9cdcfe;&quot;&gt;name&lt;/span&gt;&lt;span style=&quot;color: #569cd6;&quot;&gt;}&lt;/span&gt;&lt;span style=&quot;color: #ce9178;&quot;&gt;&quot;&lt;/span&gt;)&lt;/div&gt;&lt;div&gt;        &lt;span style=&quot;color: #c586c0;&quot;&gt;except&lt;/span&gt; &lt;span style=&quot;color: #4ec9b0;&quot;&gt;FileNotFoundError&lt;/span&gt;:&lt;/div&gt;&lt;div&gt;            &lt;span style=&quot;color: #9cdcfe;&quot;&gt;self&lt;/span&gt;.&lt;span style=&quot;color: #9cdcfe;&quot;&gt;shm&lt;/span&gt; &lt;span style=&quot;color: #d4d4d4;&quot;&gt;=&lt;/span&gt; &lt;span style=&quot;color: #4ec9b0;&quot;&gt;shared_memory&lt;/span&gt;.&lt;span style=&quot;color: #4ec9b0;&quot;&gt;SharedMemory&lt;/span&gt;(&lt;span style=&quot;color: #9cdcfe;&quot;&gt;create&lt;/span&gt;&lt;span style=&quot;color: #d4d4d4;&quot;&gt;=&lt;/span&gt;&lt;span style=&quot;color: #569cd6;&quot;&gt;True&lt;/span&gt;, &lt;span style=&quot;color: #9cdcfe;&quot;&gt;size&lt;/span&gt;&lt;span style=&quot;color: #d4d4d4;&quot;&gt;=&lt;/span&gt;&lt;span style=&quot;color: #9cdcfe;&quot;&gt;self&lt;/span&gt;.&lt;span style=&quot;color: #9cdcfe;&quot;&gt;menory_size_bytes&lt;/span&gt;, &lt;span style=&quot;color: #9cdcfe;&quot;&gt;name&lt;/span&gt; &lt;span style=&quot;color: #d4d4d4;&quot;&gt;=&lt;/span&gt; &lt;span style=&quot;color: #9cdcfe;&quot;&gt;self&lt;/span&gt;.&lt;span style=&quot;color: #9cdcfe;&quot;&gt;name&lt;/span&gt;)&lt;/div&gt;&lt;div&gt;            &lt;span style=&quot;color: #dcdcaa;&quot;&gt;print&lt;/span&gt;(&lt;span style=&quot;color: #569cd6;&quot;&gt;f&lt;/span&gt;&lt;span style=&quot;color: #ce9178;&quot;&gt;&quot;成功新建共享内存 &lt;/span&gt;&lt;span style=&quot;color: #569cd6;&quot;&gt;{&lt;/span&gt;&lt;span style=&quot;color: #9cdcfe;&quot;&gt;self&lt;/span&gt;.&lt;span style=&quot;color: #9cdcfe;&quot;&gt;name&lt;/span&gt;&lt;span style=&quot;color: #569cd6;&quot;&gt;}&lt;/span&gt;&lt;span style=&quot;color: #ce9178;&quot;&gt;&quot;&lt;/span&gt;)&lt;/div&gt;&lt;div&gt;        &lt;span style=&quot;color: #c586c0;&quot;&gt;assert&lt;/span&gt; &lt;span style=&quot;color: #9cdcfe;&quot;&gt;self&lt;/span&gt;.&lt;span style=&quot;color: #9cdcfe;&quot;&gt;shm&lt;/span&gt; &lt;span style=&quot;color: #569cd6;&quot;&gt;is&lt;/span&gt; &lt;span style=&quot;color: #569cd6;&quot;&gt;not&lt;/span&gt; &lt;span style=&quot;color: #569cd6;&quot;&gt;None&lt;/span&gt;&lt;/div&gt;&lt;div&gt;        &lt;span style=&quot;color: #4ec9b0;&quot;&gt;resource_tracker&lt;/span&gt;.&lt;span style=&quot;color: #9cdcfe;&quot;&gt;unregister&lt;/span&gt;(&lt;span style=&quot;color: #9cdcfe;&quot;&gt;self&lt;/span&gt;.&lt;span style=&quot;color: #9cdcfe;&quot;&gt;shm&lt;/span&gt;._name, &lt;span style=&quot;color: #ce9178;&quot;&gt;&#39;shared_memory&#39;&lt;/span&gt;)&lt;/div&gt;&lt;div&gt;        &lt;span style=&quot;color: #9cdcfe;&quot;&gt;self&lt;/span&gt;.&lt;span style=&quot;color: #9cdcfe;&quot;&gt;bytes&lt;/span&gt; &lt;span style=&quot;color: #d4d4d4;&quot;&gt;=&lt;/span&gt; &lt;span style=&quot;color: #9cdcfe;&quot;&gt;self&lt;/span&gt;.&lt;span style=&quot;color: #9cdcfe;&quot;&gt;shm&lt;/span&gt;.&lt;span style=&quot;color: #9cdcfe;&quot;&gt;buf&lt;/span&gt;&lt;/div&gt;&lt;br&gt;&lt;div&gt;    &lt;span style=&quot;color: #569cd6;&quot;&gt;def&lt;/span&gt; &lt;span style=&quot;color: #dcdcaa;&quot;&gt;__del__&lt;/span&gt;(&lt;span style=&quot;color: #9cdcfe;&quot;&gt;self&lt;/span&gt;):&lt;/div&gt;&lt;div&gt;        &lt;span style=&quot;color: #c586c0;&quot;&gt;if&lt;/span&gt; &lt;span style=&quot;color: #9cdcfe;&quot;&gt;self&lt;/span&gt;.&lt;span style=&quot;color: #9cdcfe;&quot;&gt;shm&lt;/span&gt; &lt;span style=&quot;color: #569cd6;&quot;&gt;is&lt;/span&gt; &lt;span style=&quot;color: #569cd6;&quot;&gt;not&lt;/span&gt; &lt;span style=&quot;color: #569cd6;&quot;&gt;None&lt;/span&gt;:&lt;/div&gt;&lt;div&gt;            &lt;span style=&quot;color: #9cdcfe;&quot;&gt;self&lt;/span&gt;.&lt;span style=&quot;color: #9cdcfe;&quot;&gt;shm&lt;/span&gt;.&lt;span style=&quot;color: #dcdcaa;&quot;&gt;close&lt;/span&gt;()&lt;/div&gt;&lt;div&gt;        &lt;span style=&quot;color: #dcdcaa;&quot;&gt;print&lt;/span&gt;(&lt;span style=&quot;color: #ce9178;&quot;&gt;&#39;这是析构函数&#39;&lt;/span&gt;)&lt;/div&gt;&lt;br&gt;&lt;br&gt;&lt;div&gt;    &lt;span style=&quot;color: #569cd6;&quot;&gt;def&lt;/span&gt; &lt;span style=&quot;color: #dcdcaa;&quot;&gt;put&lt;/span&gt;(&lt;span style=&quot;color: #9cdcfe;&quot;&gt;self&lt;/span&gt;, &lt;span style=&quot;color: #9cdcfe;&quot;&gt;frame_info&lt;/span&gt;: &lt;span style=&quot;color: #4ec9b0;&quot;&gt;FrameInfo&lt;/span&gt;):&lt;/div&gt;&lt;div&gt;        &lt;span style=&quot;color: #9cdcfe;&quot;&gt;frame_info_bytes&lt;/span&gt; &lt;span style=&quot;color: #d4d4d4;&quot;&gt;=&lt;/span&gt; &lt;span style=&quot;color: #9cdcfe;&quot;&gt;frame_info&lt;/span&gt;.&lt;span style=&quot;color: #dcdcaa;&quot;&gt;to_bytes&lt;/span&gt;()&lt;/div&gt;&lt;div&gt;        &lt;span style=&quot;color: #9cdcfe;&quot;&gt;start_idx&lt;/span&gt; &lt;span style=&quot;color: #d4d4d4;&quot;&gt;=&lt;/span&gt; &lt;span style=&quot;color: #9cdcfe;&quot;&gt;self&lt;/span&gt;.&lt;span style=&quot;color: #9cdcfe;&quot;&gt;idx&lt;/span&gt; &lt;span style=&quot;color: #d4d4d4;&quot;&gt;*&lt;/span&gt; &lt;span style=&quot;color: #9cdcfe;&quot;&gt;self&lt;/span&gt;.&lt;span style=&quot;color: #9cdcfe;&quot;&gt;frame_timestamp_size_bytes&lt;/span&gt;&lt;/div&gt;&lt;div&gt;        &lt;span style=&quot;color: #9cdcfe;&quot;&gt;end_idx&lt;/span&gt; &lt;span style=&quot;color: #d4d4d4;&quot;&gt;=&lt;/span&gt; &lt;span style=&quot;color: #9cdcfe;&quot;&gt;start_idx&lt;/span&gt; &lt;span style=&quot;color: #d4d4d4;&quot;&gt;+&lt;/span&gt; &lt;span style=&quot;color: #9cdcfe;&quot;&gt;self&lt;/span&gt;.&lt;span style=&quot;color: #9cdcfe;&quot;&gt;frame_timestamp_size_bytes&lt;/span&gt;&lt;/div&gt;&lt;div&gt;        &lt;span style=&quot;color: #9cdcfe;&quot;&gt;self&lt;/span&gt;.&lt;span style=&quot;color: #9cdcfe;&quot;&gt;shm&lt;/span&gt;.&lt;span style=&quot;color: #9cdcfe;&quot;&gt;buf&lt;/span&gt;[&lt;span style=&quot;color: #9cdcfe;&quot;&gt;start_idx&lt;/span&gt;: &lt;span style=&quot;color: #9cdcfe;&quot;&gt;end_idx&lt;/span&gt;] &lt;span style=&quot;color: #d4d4d4;&quot;&gt;=&lt;/span&gt; &lt;span style=&quot;color: #9cdcfe;&quot;&gt;frame_info_bytes&lt;/span&gt;[&lt;span style=&quot;color: #b5cea8;&quot;&gt;0&lt;/span&gt;: &lt;span style=&quot;color: #9cdcfe;&quot;&gt;self&lt;/span&gt;.&lt;span style=&quot;color: #9cdcfe;&quot;&gt;frame_timestamp_size_bytes&lt;/span&gt;]&lt;/div&gt;&lt;br&gt;&lt;div&gt;        &lt;span style=&quot;color: #6a9955;&quot;&gt;# sec = int.from_bytes(self.shm.buf[start_idx:start_idx+4], &quot;big&quot;)&lt;/span&gt;&lt;/div&gt;&lt;div&gt;        &lt;span style=&quot;color: #6a9955;&quot;&gt;# nsec = int.from_bytes(self.shm.buf[start_idx+4:start_idx+8], &quot;big&quot;)&lt;/span&gt;&lt;/div&gt;&lt;br&gt;&lt;div&gt;        &lt;span style=&quot;color: #9cdcfe;&quot;&gt;start_idx&lt;/span&gt; &lt;span style=&quot;color: #d4d4d4;&quot;&gt;=&lt;/span&gt; &lt;span style=&quot;color: #9cdcfe;&quot;&gt;self&lt;/span&gt;.&lt;span style=&quot;color: #9cdcfe;&quot;&gt;frame_timestamps_size_bytes&lt;/span&gt; &lt;span style=&quot;color: #dcdcaa;&quot;&gt;+&lt;/span&gt; &lt;span style=&quot;color: #9cdcfe;&quot;&gt;self&lt;/span&gt;.&lt;span style=&quot;color: #9cdcfe;&quot;&gt;idx&lt;/span&gt; &lt;span style=&quot;color: #d4d4d4;&quot;&gt;*&lt;/span&gt; &lt;span style=&quot;color: #9cdcfe;&quot;&gt;self&lt;/span&gt;.&lt;span style=&quot;color: #9cdcfe;&quot;&gt;frame_info_size_bytes&lt;/span&gt;&lt;/div&gt;&lt;div&gt;        &lt;span style=&quot;color: #9cdcfe;&quot;&gt;end_idx&lt;/span&gt; &lt;span style=&quot;color: #d4d4d4;&quot;&gt;=&lt;/span&gt; &lt;span style=&quot;color: #9cdcfe;&quot;&gt;start_idx&lt;/span&gt; &lt;span style=&quot;color: #d4d4d4;&quot;&gt;+&lt;/span&gt; &lt;span style=&quot;color: #dcdcaa;&quot;&gt;len&lt;/span&gt;(&lt;span style=&quot;color: #9cdcfe;&quot;&gt;frame_info_bytes&lt;/span&gt;)&lt;/div&gt;&lt;div&gt;        &lt;span style=&quot;color: #6a9955;&quot;&gt;# print(f&quot;&amp;gt;&amp;gt; len(self.shm.buf): {len(self.shm.buf)}, start:{start_idx} end:{end_idx}&quot;)&lt;/span&gt;&lt;/div&gt;&lt;div&gt;        &lt;span style=&quot;color: #9cdcfe;&quot;&gt;is_write_succeed&lt;/span&gt; &lt;span style=&quot;color: #d4d4d4;&quot;&gt;=&lt;/span&gt; &lt;span style=&quot;color: #569cd6;&quot;&gt;True&lt;/span&gt;&lt;/div&gt;&lt;div&gt;        &lt;span style=&quot;color: #c586c0;&quot;&gt;try&lt;/span&gt;:&lt;/div&gt;&lt;br&gt;&lt;div&gt;            &lt;span style=&quot;color: #9cdcfe;&quot;&gt;self&lt;/span&gt;.&lt;span style=&quot;color: #9cdcfe;&quot;&gt;shm&lt;/span&gt;.&lt;span style=&quot;color: #9cdcfe;&quot;&gt;buf&lt;/span&gt;[&lt;span style=&quot;color: #9cdcfe;&quot;&gt;start_idx&lt;/span&gt;: &lt;span style=&quot;color: #9cdcfe;&quot;&gt;end_idx&lt;/span&gt;] &lt;span style=&quot;color: #d4d4d4;&quot;&gt;=&lt;/span&gt; &lt;span style=&quot;color: #9cdcfe;&quot;&gt;frame_info_bytes&lt;/span&gt;&lt;/div&gt;&lt;div&gt;            &lt;span style=&quot;color: #9cdcfe;&quot;&gt;self&lt;/span&gt;.&lt;span style=&quot;color: #9cdcfe;&quot;&gt;idx&lt;/span&gt; &lt;span style=&quot;color: #d4d4d4;&quot;&gt;=&lt;/span&gt; &lt;span style=&quot;color: #4ec9b0;&quot;&gt;int&lt;/span&gt;((&lt;span style=&quot;color: #9cdcfe;&quot;&gt;self&lt;/span&gt;.&lt;span style=&quot;color: #9cdcfe;&quot;&gt;idx&lt;/span&gt; &lt;span style=&quot;color: #d4d4d4;&quot;&gt;+&lt;/span&gt; &lt;span style=&quot;color: #b5cea8;&quot;&gt;1&lt;/span&gt;) &lt;span style=&quot;color: #d4d4d4;&quot;&gt;%&lt;/span&gt; &lt;span style=&quot;color: #9cdcfe;&quot;&gt;self&lt;/span&gt;.&lt;span style=&quot;color: #9cdcfe;&quot;&gt;MAX_FRAME_COUNT&lt;/span&gt;)&lt;/div&gt;&lt;div&gt;        &lt;span style=&quot;color: #c586c0;&quot;&gt;except&lt;/span&gt; &lt;span style=&quot;color: #4ec9b0;&quot;&gt;Exception&lt;/span&gt; &lt;span style=&quot;color: #c586c0;&quot;&gt;as&lt;/span&gt; &lt;span style=&quot;color: #9cdcfe;&quot;&gt;exp&lt;/span&gt;:&lt;/div&gt;&lt;div&gt;            &lt;span style=&quot;color: #9cdcfe;&quot;&gt;is_write_succeed&lt;/span&gt; &lt;span style=&quot;color: #d4d4d4;&quot;&gt;=&lt;/span&gt; &lt;span style=&quot;color: #569cd6;&quot;&gt;False&lt;/span&gt;&lt;/div&gt;&lt;div&gt;            &lt;span style=&quot;color: #6a9955;&quot;&gt;# return f&quot;\n\nbad! {self.idx} {self.MAX_FRAME_COUNT} {self.frame_info_size_bytes} s-end:{start_idx}-{end_idx} {len(self.shm.buf)}&quot; + log_info&lt;/span&gt;&lt;/div&gt;&lt;div&gt;        &lt;span style=&quot;color: #9cdcfe;&quot;&gt;log_info&lt;/span&gt; &lt;span style=&quot;color: #d4d4d4;&quot;&gt;=&lt;/span&gt; &lt;span style=&quot;color: #569cd6;&quot;&gt;f&lt;/span&gt;&lt;span style=&quot;color: #ce9178;&quot;&gt;&quot;is_write_succeed: &lt;/span&gt;&lt;span style=&quot;color: #569cd6;&quot;&gt;{&lt;/span&gt;&lt;span style=&quot;color: #9cdcfe;&quot;&gt;is_write_succeed&lt;/span&gt;&lt;span style=&quot;color: #569cd6;&quot;&gt;}&lt;/span&gt;&lt;span style=&quot;color: #ce9178;&quot;&gt; 位置: &lt;/span&gt;&lt;span style=&quot;color: #569cd6;&quot;&gt;{&lt;/span&gt;&lt;span style=&quot;color: #9cdcfe;&quot;&gt;self&lt;/span&gt;.&lt;span style=&quot;color: #9cdcfe;&quot;&gt;idx&lt;/span&gt;&lt;span style=&quot;color: #569cd6;&quot;&gt;}&lt;/span&gt;&lt;span style=&quot;color: #ce9178;&quot;&gt; 时间：&lt;/span&gt;&lt;span style=&quot;color: #569cd6;&quot;&gt;{&lt;/span&gt;&lt;span style=&quot;color: #9cdcfe;&quot;&gt;frame_info&lt;/span&gt;.&lt;span style=&quot;color: #9cdcfe;&quot;&gt;sec&lt;/span&gt;&lt;span style=&quot;color: #569cd6;&quot;&gt;}&lt;/span&gt;&lt;span style=&quot;color: #ce9178;&quot;&gt;, &lt;/span&gt;&lt;span style=&quot;color: #569cd6;&quot;&gt;{&lt;/span&gt;&lt;span style=&quot;color: #9cdcfe;&quot;&gt;frame_info&lt;/span&gt;.&lt;span style=&quot;color: #9cdcfe;&quot;&gt;nsec&lt;/span&gt;&lt;span style=&quot;color: #569cd6;&quot;&gt;}&lt;/span&gt;&lt;span style=&quot;color: #ce9178;&quot;&gt;&quot;&lt;/span&gt;&lt;/div&gt;&lt;div&gt;        &lt;/div&gt;&lt;div&gt;        &lt;span style=&quot;color: #6a9955;&quot;&gt;# print(f&quot;&amp;lt;&amp;lt; len(self.shm.buf): {len(self.shm.buf)}, start:{start_idx} end:{end_idx} self.idx = {self.idx}&quot;)&lt;/span&gt;&lt;/div&gt;&lt;div&gt;        &lt;span style=&quot;color: #c586c0;&quot;&gt;return&lt;/span&gt; &lt;span style=&quot;color: #9cdcfe;&quot;&gt;log_info&lt;/span&gt;&lt;/div&gt;&lt;br&gt;&lt;br&gt;&lt;div&gt;    &lt;span style=&quot;color: #569cd6;&quot;&gt;def&lt;/span&gt; &lt;span style=&quot;color: #dcdcaa;&quot;&gt;get&lt;/span&gt;(&lt;span style=&quot;color: #9cdcfe;&quot;&gt;self&lt;/span&gt;, &lt;span style=&quot;color: #9cdcfe;&quot;&gt;sec&lt;/span&gt;, &lt;span style=&quot;color: #9cdcfe;&quot;&gt;nsec&lt;/span&gt;):&lt;/div&gt;&lt;div&gt;        &lt;span style=&quot;color: #9cdcfe;&quot;&gt;frame_info&lt;/span&gt; &lt;span style=&quot;color: #d4d4d4;&quot;&gt;=&lt;/span&gt; &lt;span style=&quot;color: #569cd6;&quot;&gt;None&lt;/span&gt;&lt;/div&gt;&lt;div&gt;        &lt;span style=&quot;color: #9cdcfe;&quot;&gt;frame_timestamp&lt;/span&gt; &lt;span style=&quot;color: #d4d4d4;&quot;&gt;=&lt;/span&gt; &lt;span style=&quot;color: #9cdcfe;&quot;&gt;sec&lt;/span&gt;.to_bytes(&lt;span style=&quot;color: #b5cea8;&quot;&gt;4&lt;/span&gt;,&lt;span style=&quot;color: #9cdcfe;&quot;&gt;byteorder&lt;/span&gt;&lt;span style=&quot;color: #d4d4d4;&quot;&gt;=&lt;/span&gt;&lt;span style=&quot;color: #ce9178;&quot;&gt;&quot;big&quot;&lt;/span&gt;) &lt;span style=&quot;color: #d4d4d4;&quot;&gt;+&lt;/span&gt; &lt;span style=&quot;color: #9cdcfe;&quot;&gt;nsec&lt;/span&gt;.to_bytes(&lt;span style=&quot;color: #b5cea8;&quot;&gt;4&lt;/span&gt;,&lt;span style=&quot;color: #9cdcfe;&quot;&gt;byteorder&lt;/span&gt;&lt;span style=&quot;color: #d4d4d4;&quot;&gt;=&lt;/span&gt;&lt;span style=&quot;color: #ce9178;&quot;&gt;&quot;big&quot;&lt;/span&gt;)&lt;/div&gt;&lt;div&gt;        &lt;span style=&quot;color: #c586c0;&quot;&gt;for&lt;/span&gt; &lt;span style=&quot;color: #9cdcfe;&quot;&gt;idx&lt;/span&gt; &lt;span style=&quot;color: #c586c0;&quot;&gt;in&lt;/span&gt; &lt;span style=&quot;color: #4ec9b0;&quot;&gt;range&lt;/span&gt;(&lt;span style=&quot;color: #9cdcfe;&quot;&gt;self&lt;/span&gt;.&lt;span style=&quot;color: #9cdcfe;&quot;&gt;MAX_FRAME_COUNT&lt;/span&gt;):&lt;/div&gt;&lt;div&gt;            &lt;span style=&quot;color: #9cdcfe;&quot;&gt;start_idx&lt;/span&gt; &lt;span style=&quot;color: #d4d4d4;&quot;&gt;=&lt;/span&gt; &lt;span style=&quot;color: #9cdcfe;&quot;&gt;idx&lt;/span&gt; &lt;span style=&quot;color: #d4d4d4;&quot;&gt;*&lt;/span&gt; &lt;span style=&quot;color: #9cdcfe;&quot;&gt;self&lt;/span&gt;.&lt;span style=&quot;color: #9cdcfe;&quot;&gt;frame_timestamp_size_bytes&lt;/span&gt;&lt;/div&gt;&lt;div&gt;            &lt;span style=&quot;color: #9cdcfe;&quot;&gt;end_idx&lt;/span&gt; &lt;span style=&quot;color: #d4d4d4;&quot;&gt;=&lt;/span&gt; &lt;span style=&quot;color: #9cdcfe;&quot;&gt;start_idx&lt;/span&gt; &lt;span style=&quot;color: #d4d4d4;&quot;&gt;+&lt;/span&gt; &lt;span style=&quot;color: #dcdcaa;&quot;&gt;len&lt;/span&gt;(&lt;span style=&quot;color: #9cdcfe;&quot;&gt;frame_timestamp&lt;/span&gt;)&lt;/div&gt;&lt;div&gt;            &lt;span style=&quot;color: #c586c0;&quot;&gt;if&lt;/span&gt; &lt;span style=&quot;color: #9cdcfe;&quot;&gt;self&lt;/span&gt;.&lt;span style=&quot;color: #9cdcfe;&quot;&gt;shm&lt;/span&gt;.&lt;span style=&quot;color: #9cdcfe;&quot;&gt;buf&lt;/span&gt;[&lt;span style=&quot;color: #9cdcfe;&quot;&gt;start_idx&lt;/span&gt;:&lt;span style=&quot;color: #9cdcfe;&quot;&gt;end_idx&lt;/span&gt;] &lt;span style=&quot;color: #d4d4d4;&quot;&gt;==&lt;/span&gt; &lt;span style=&quot;color: #9cdcfe;&quot;&gt;frame_timestamp&lt;/span&gt;:&lt;/div&gt;&lt;div&gt;                &lt;span style=&quot;color: #9cdcfe;&quot;&gt;start_idx&lt;/span&gt; &lt;span style=&quot;color: #d4d4d4;&quot;&gt;=&lt;/span&gt; &lt;span style=&quot;color: #9cdcfe;&quot;&gt;self&lt;/span&gt;.&lt;span style=&quot;color: #9cdcfe;&quot;&gt;frame_timestamps_size_bytes&lt;/span&gt; &lt;span style=&quot;color: #dcdcaa;&quot;&gt;+&lt;/span&gt; &lt;span style=&quot;color: #9cdcfe;&quot;&gt;idx&lt;/span&gt; &lt;span style=&quot;color: #d4d4d4;&quot;&gt;*&lt;/span&gt; &lt;span style=&quot;color: #9cdcfe;&quot;&gt;self&lt;/span&gt;.&lt;span style=&quot;color: #9cdcfe;&quot;&gt;frame_info_size_bytes&lt;/span&gt;&lt;/div&gt;&lt;div&gt;                &lt;span style=&quot;color: #9cdcfe;&quot;&gt;end_idx&lt;/span&gt; &lt;span style=&quot;color: #d4d4d4;&quot;&gt;=&lt;/span&gt; &lt;span style=&quot;color: #9cdcfe;&quot;&gt;start_idx&lt;/span&gt; &lt;span style=&quot;color: #dcdcaa;&quot;&gt;+&lt;/span&gt; &lt;span style=&quot;color: #9cdcfe;&quot;&gt;self&lt;/span&gt;.&lt;span style=&quot;color: #9cdcfe;&quot;&gt;frame_info_size_bytes&lt;/span&gt;&lt;/div&gt;&lt;div&gt;                &lt;span style=&quot;color: #9cdcfe;&quot;&gt;frame_info&lt;/span&gt; &lt;span style=&quot;color: #d4d4d4;&quot;&gt;=&lt;/span&gt; &lt;span style=&quot;color: #4ec9b0;&quot;&gt;FrameInfo&lt;/span&gt;.&lt;span style=&quot;color: #dcdcaa;&quot;&gt;from_bytes&lt;/span&gt;(&lt;span style=&quot;color: #9cdcfe;&quot;&gt;self&lt;/span&gt;.&lt;span style=&quot;color: #9cdcfe;&quot;&gt;shm&lt;/span&gt;.&lt;span style=&quot;color: #9cdcfe;&quot;&gt;buf&lt;/span&gt;[&lt;span style=&quot;color: #9cdcfe;&quot;&gt;start_idx&lt;/span&gt;:&lt;span style=&quot;color: #9cdcfe;&quot;&gt;end_idx&lt;/span&gt;])&lt;/div&gt;&lt;div&gt;                &lt;span style=&quot;color: #c586c0;&quot;&gt;break&lt;/span&gt;&lt;/div&gt;&lt;div&gt;        &lt;span style=&quot;color: #6a9955;&quot;&gt;# print(f&quot;找不到该帧，帧索引为： {sec}.{nsec}&quot;)&lt;/span&gt;&lt;/div&gt;&lt;div&gt;        &lt;span style=&quot;color: #9cdcfe;&quot;&gt;idxs&lt;/span&gt; &lt;span style=&quot;color: #d4d4d4;&quot;&gt;=&lt;/span&gt; &lt;span style=&quot;color: #569cd6;&quot;&gt;None&lt;/span&gt; &lt;span style=&quot;color: #6a9955;&quot;&gt;#self.getIdxs()&lt;/span&gt;&lt;/div&gt;&lt;div&gt;        &lt;span style=&quot;color: #c586c0;&quot;&gt;return&lt;/span&gt; &lt;span style=&quot;color: #9cdcfe;&quot;&gt;frame_info&lt;/span&gt;, &lt;span style=&quot;color: #9cdcfe;&quot;&gt;idxs&lt;/span&gt;, &lt;span style=&quot;color: #9cdcfe;&quot;&gt;idx&lt;/span&gt;&lt;/div&gt;&lt;div&gt;    &lt;/div&gt;&lt;div&gt;    &lt;span style=&quot;color: #569cd6;&quot;&gt;def&lt;/span&gt; &lt;span style=&quot;color: #dcdcaa;&quot;&gt;get_cv2_image_hwc&lt;/span&gt;(&lt;span style=&quot;color: #9cdcfe;&quot;&gt;self&lt;/span&gt;, &lt;span style=&quot;color: #9cdcfe;&quot;&gt;sec&lt;/span&gt;, &lt;span style=&quot;color: #9cdcfe;&quot;&gt;nsec&lt;/span&gt;):&lt;/div&gt;&lt;div&gt;        &lt;span style=&quot;color: #9cdcfe;&quot;&gt;frame_info&lt;/span&gt;, &lt;span style=&quot;color: #9cdcfe;&quot;&gt;_&lt;/span&gt;, &lt;span style=&quot;color: #9cdcfe;&quot;&gt;_&lt;/span&gt; &lt;span style=&quot;color: #d4d4d4;&quot;&gt;=&lt;/span&gt; &lt;span style=&quot;color: #9cdcfe;&quot;&gt;self&lt;/span&gt;.&lt;span style=&quot;color: #dcdcaa;&quot;&gt;get&lt;/span&gt;(&lt;span style=&quot;color: #9cdcfe;&quot;&gt;sec&lt;/span&gt;, &lt;span style=&quot;color: #9cdcfe;&quot;&gt;nsec&lt;/span&gt;)&lt;/div&gt;&lt;div&gt;        &lt;span style=&quot;color: #c586c0;&quot;&gt;if&lt;/span&gt; &lt;span style=&quot;color: #9cdcfe;&quot;&gt;frame_info&lt;/span&gt; &lt;span style=&quot;color: #569cd6;&quot;&gt;is&lt;/span&gt; &lt;span style=&quot;color: #569cd6;&quot;&gt;None&lt;/span&gt;:&lt;/div&gt;&lt;div&gt;            &lt;span style=&quot;color: #c586c0;&quot;&gt;return&lt;/span&gt; &lt;span style=&quot;color: #569cd6;&quot;&gt;None&lt;/span&gt;&lt;/div&gt;&lt;div&gt;        &lt;span style=&quot;color: #c586c0;&quot;&gt;else&lt;/span&gt;:&lt;/div&gt;&lt;div&gt;            &lt;span style=&quot;color: #9cdcfe;&quot;&gt;cv2_image&lt;/span&gt; &lt;span style=&quot;color: #d4d4d4;&quot;&gt;=&lt;/span&gt; &lt;span style=&quot;color: #4ec9b0;&quot;&gt;np&lt;/span&gt;.&lt;span style=&quot;color: #dcdcaa;&quot;&gt;frombuffer&lt;/span&gt;(&lt;span style=&quot;color: #9cdcfe;&quot;&gt;frame_info&lt;/span&gt;.&lt;span style=&quot;color: #9cdcfe;&quot;&gt;data&lt;/span&gt;, &lt;span style=&quot;color: #9cdcfe;&quot;&gt;dtype&lt;/span&gt;&lt;span style=&quot;color: #d4d4d4;&quot;&gt;=&lt;/span&gt;&lt;span style=&quot;color: #4ec9b0;&quot;&gt;np&lt;/span&gt;.&lt;span style=&quot;color: #9cdcfe;&quot;&gt;uint8&lt;/span&gt;).&lt;span style=&quot;color: #dcdcaa;&quot;&gt;reshape&lt;/span&gt;(&lt;span style=&quot;color: #9cdcfe;&quot;&gt;self&lt;/span&gt;.&lt;span style=&quot;color: #9cdcfe;&quot;&gt;frame_shape_hwc&lt;/span&gt;)&lt;/div&gt;&lt;div&gt;            &lt;span style=&quot;color: #c586c0;&quot;&gt;return&lt;/span&gt; &lt;span style=&quot;color: #9cdcfe;&quot;&gt;cv2_image&lt;/span&gt;&lt;/div&gt;&lt;br&gt;&lt;div&gt;    &lt;span style=&quot;color: #569cd6;&quot;&gt;def&lt;/span&gt; &lt;span style=&quot;color: #dcdcaa;&quot;&gt;getIdxs&lt;/span&gt;(&lt;span style=&quot;color: #9cdcfe;&quot;&gt;self&lt;/span&gt;):&lt;/div&gt;&lt;div&gt;        &lt;span style=&quot;color: #9cdcfe;&quot;&gt;idxs&lt;/span&gt; &lt;span style=&quot;color: #d4d4d4;&quot;&gt;=&lt;/span&gt; []&lt;/div&gt;&lt;div&gt;        &lt;span style=&quot;color: #c586c0;&quot;&gt;for&lt;/span&gt; &lt;span style=&quot;color: #9cdcfe;&quot;&gt;idx&lt;/span&gt; &lt;span style=&quot;color: #c586c0;&quot;&gt;in&lt;/span&gt; &lt;span style=&quot;color: #4ec9b0;&quot;&gt;range&lt;/span&gt;(&lt;span style=&quot;color: #9cdcfe;&quot;&gt;self&lt;/span&gt;.&lt;span style=&quot;color: #9cdcfe;&quot;&gt;MAX_FRAME_COUNT&lt;/span&gt;):&lt;/div&gt;&lt;div&gt;            &lt;span style=&quot;color: #9cdcfe;&quot;&gt;start_idx&lt;/span&gt; &lt;span style=&quot;color: #d4d4d4;&quot;&gt;=&lt;/span&gt; &lt;span style=&quot;color: #9cdcfe;&quot;&gt;idx&lt;/span&gt; &lt;span style=&quot;color: #d4d4d4;&quot;&gt;*&lt;/span&gt; &lt;span style=&quot;color: #9cdcfe;&quot;&gt;self&lt;/span&gt;.&lt;span style=&quot;color: #9cdcfe;&quot;&gt;frame_timestamp_size_bytes&lt;/span&gt;&lt;/div&gt;&lt;div&gt;            &lt;span style=&quot;color: #9cdcfe;&quot;&gt;tmp_sec&lt;/span&gt; &lt;span style=&quot;color: #d4d4d4;&quot;&gt;=&lt;/span&gt; &lt;span style=&quot;color: #4ec9b0;&quot;&gt;int&lt;/span&gt;.&lt;span style=&quot;color: #dcdcaa;&quot;&gt;from_bytes&lt;/span&gt;(&lt;span style=&quot;color: #9cdcfe;&quot;&gt;self&lt;/span&gt;.&lt;span style=&quot;color: #9cdcfe;&quot;&gt;shm&lt;/span&gt;.&lt;span style=&quot;color: #9cdcfe;&quot;&gt;buf&lt;/span&gt;[&lt;span style=&quot;color: #9cdcfe;&quot;&gt;start_idx&lt;/span&gt;:&lt;span style=&quot;color: #9cdcfe;&quot;&gt;start_idx&lt;/span&gt;&lt;span style=&quot;color: #d4d4d4;&quot;&gt;+&lt;/span&gt;&lt;span style=&quot;color: #b5cea8;&quot;&gt;4&lt;/span&gt;], &lt;span style=&quot;color: #ce9178;&quot;&gt;&quot;big&quot;&lt;/span&gt;)&lt;/div&gt;&lt;div&gt;            &lt;span style=&quot;color: #9cdcfe;&quot;&gt;tmp_nsec&lt;/span&gt; &lt;span style=&quot;color: #d4d4d4;&quot;&gt;=&lt;/span&gt; &lt;span style=&quot;color: #4ec9b0;&quot;&gt;int&lt;/span&gt;.&lt;span style=&quot;color: #dcdcaa;&quot;&gt;from_bytes&lt;/span&gt;(&lt;span style=&quot;color: #9cdcfe;&quot;&gt;self&lt;/span&gt;.&lt;span style=&quot;color: #9cdcfe;&quot;&gt;shm&lt;/span&gt;.&lt;span style=&quot;color: #9cdcfe;&quot;&gt;buf&lt;/span&gt;[&lt;span style=&quot;color: #9cdcfe;&quot;&gt;start_idx&lt;/span&gt;&lt;span style=&quot;color: #d4d4d4;&quot;&gt;+&lt;/span&gt;&lt;span style=&quot;color: #b5cea8;&quot;&gt;4&lt;/span&gt;:&lt;span style=&quot;color: #9cdcfe;&quot;&gt;start_idx&lt;/span&gt;&lt;span style=&quot;color: #d4d4d4;&quot;&gt;+&lt;/span&gt;&lt;span style=&quot;color: #b5cea8;&quot;&gt;8&lt;/span&gt;], &lt;span style=&quot;color: #ce9178;&quot;&gt;&quot;big&quot;&lt;/span&gt;)&lt;/div&gt;&lt;div&gt;            &lt;span style=&quot;color: #9cdcfe;&quot;&gt;tmp_data_len&lt;/span&gt; &lt;span style=&quot;color: #d4d4d4;&quot;&gt;=&lt;/span&gt; &lt;span style=&quot;color: #4ec9b0;&quot;&gt;int&lt;/span&gt;.&lt;span style=&quot;color: #dcdcaa;&quot;&gt;from_bytes&lt;/span&gt;(&lt;span style=&quot;color: #9cdcfe;&quot;&gt;self&lt;/span&gt;.&lt;span style=&quot;color: #9cdcfe;&quot;&gt;shm&lt;/span&gt;.&lt;span style=&quot;color: #9cdcfe;&quot;&gt;buf&lt;/span&gt;[&lt;span style=&quot;color: #9cdcfe;&quot;&gt;start_idx&lt;/span&gt;&lt;span style=&quot;color: #d4d4d4;&quot;&gt;+&lt;/span&gt;&lt;span style=&quot;color: #b5cea8;&quot;&gt;8&lt;/span&gt;:&lt;span style=&quot;color: #9cdcfe;&quot;&gt;start_idx&lt;/span&gt;&lt;span style=&quot;color: #d4d4d4;&quot;&gt;+&lt;/span&gt;&lt;span style=&quot;color: #b5cea8;&quot;&gt;12&lt;/span&gt;], &lt;span style=&quot;color: #ce9178;&quot;&gt;&quot;big&quot;&lt;/span&gt;)&lt;/div&gt;&lt;div&gt;            &lt;span style=&quot;color: #9cdcfe;&quot;&gt;idxs&lt;/span&gt;.&lt;span style=&quot;color: #dcdcaa;&quot;&gt;append&lt;/span&gt;((&lt;span style=&quot;color: #9cdcfe;&quot;&gt;start_idx&lt;/span&gt;, &lt;span style=&quot;color: #9cdcfe;&quot;&gt;tmp_sec&lt;/span&gt;, &lt;span style=&quot;color: #9cdcfe;&quot;&gt;tmp_nsec&lt;/span&gt;, &lt;span style=&quot;color: #9cdcfe;&quot;&gt;tmp_data_len&lt;/span&gt;))&lt;/div&gt;&lt;div&gt;        &lt;span style=&quot;color: #6a9955;&quot;&gt;# print(&quot;&amp;gt;&amp;gt;&quot;, idxs)&lt;/span&gt;&lt;/div&gt;&lt;div&gt;        &lt;span style=&quot;color: #c586c0;&quot;&gt;return&lt;/span&gt; &lt;span style=&quot;color: #9cdcfe;&quot;&gt;idxs&lt;/span&gt;&lt;/div&gt;&lt;/div&gt;&lt;/div&gt;" style="text;html=1;whiteSpace=wrap;overflow=hidden;rounded=0;" vertex="1" parent="WIyWlLk6GJQsqaUBKTNV-1">
          <mxGeometry x="740" y="100" width="580" height="390" as="geometry" />
        </mxCell>
      </root>
    </mxGraphModel>
  </diagram>
</mxfile>
